Patient4_TMGait_0pt6_02_right_39_EMG.mot
version=1
nRows=16
nColumns=33
inDegrees=no
endheader
time	1LAddLong	2LGlutMax	3LGlutMed	4LIliopsoas	5LSemiMemb	6LBicFemLong	7LRecFem	8LVastMed	9LVastLat	10LGasMed	11LTibAnt	12lTibPost	13LPeroneusLong	14LSol	15LExtDigLong	16LFlexDigLong	17RAddLong	18RGlutMax	19RGlutMed	20RIliopsoas	21RSemiMemb	22RBicFemLong	23RRecFem	24RVastMed	25RVastLat	26RGasMed	27RTibAnt	28RTibPost	29RPeroneusLong	30RSol	31RExtDigLong	32RFlexDigLong
47.04	0.006104	0.004578	0.13794	-0.006714	0.076141	0.021515	-0.022736	-0.002136	0.042267	-0.084381	0.025024	-0.030212	-0.075989	-0.58166	-0.016937	0.088959	0.000916	-0.12299	0.12024	0.085297	-0.074768	-0.000153	0.20294	-0.076141	0.045929	-0.009918	-0.12589	-0.015411	0.013123	-0.08316	-0.001678	-0.014801
47.041	0.018768	-0.000763	0.1619	-0.023804	0.059357	-0.015259	0.003204	-0.003662	0.028687	-0.025787	0.019684	-0.01236	-0.21652	-0.25009	-0.00351	0.13245	-0.00473	-0.11856	-0.2063	0.12711	-0.064697	0.01358	0.25131	-0.046234	0.036469	-0.00885	-0.20264	-0.015717	0.19089	-0.10925	0.002136	-0.010071
47.042	0.00885	-0.015717	0.08194	-0.011902	0.01358	-0.086365	0.025482	0.000305	0.016022	0.067749	0.011139	-0.00351	-0.18921	0.33127	0.075073	0.024109	-0.000916	-0.12787	-0.42282	0.098419	-0.074463	0.011444	0.2919	-0.023346	0.061493	-0.002441	0.027618	-0.011749	0.29694	-0.1181	-0.002747	-0.01297
47.043	0.005341	-0.020599	-0.00061	-0.00061	-0.021667	-0.22446	0.050049	0.006256	0.019226	0.045319	0.003204	-0.034485	-0.15991	0.53299	0.062103	-0.13626	0.001831	-0.097198	-0.44632	0.13321	-0.070496	0.016022	0.21042	-0.040131	0.063629	-0.009918	0.24902	-0.014954	0.2388	-0.081177	-0.000763	-0.006866
47.044	0.027618	-0.052338	-0.055695	0.029907	0.016022	-0.12955	0.025177	0.000763	0.02655	-0.08194	0.005188	-0.027313	-0.064087	0.33432	-0.018768	0.066833	0.000916	-0.09552	-0.37201	0.11444	-0.062103	0.020905	0.055847	-0.022888	0.037537	-0.011902	0.30792	-0.012207	0.005341	-0.045929	-0.003967	-0.011444
47.045	0.025482	-0.11993	-0.044403	0.032043	0.022888	0.1387	0.034027	0.004578	0.010834	-0.16983	0.000305	-0.089417	0.044708	0.42648	0.004578	-0.45013	-0.007935	-0.1329	-0.41702	0.10254	-0.06073	0.032043	0.075226	0.062103	0.03952	-0.006409	0.20386	-0.010681	-0.086823	-0.036011	-0.00061	-0.007324
47.046	0.010834	-0.079803	-0.008087	0.001221	0.068054	0.22415	0.044861	0.001678	0.006714	-0.20828	0.009918	-0.088501	0.048065	0.22232	0.009613	0.16769	-0.017395	-0.12405	-0.45425	0.097046	-0.054626	0.037079	0.19531	0.13779	0.042877	0.000916	-0.028992	-0.010681	-0.068817	-0.05722	-0.000153	-0.003204
47.047	0.000305	-0.068817	-0.012512	0.001068	0.085907	0.045166	0.012817	0.003815	0.017395	-0.34683	0.014954	0.10834	-0.007782	0.052948	-0.003357	0.4306	-0.009918	-0.099487	-0.32532	0.047913	-0.059052	0.035553	0.13107	0.067749	0.012665	0.002594	0.15533	-0.015259	-0.10498	-0.060272	-0.004272	-0.004272
47.048	0.007477	-0.071716	0.064392	0.005035	0.04776	-0.51056	-0.01297	-0.006104	0.038147	-0.032806	0.006866	0.078735	-0.062866	0.49698	0.027924	0.24124	0.027008	-0.026855	-0.31021	0.022736	-0.045319	0.014343	0.024261	0.027771	0.009766	0.002441	0.017395	-0.007782	-0.11078	-0.14008	-0.002899	0.004425
47.049	0.013123	-0.03891	0.046387	0.000458	0.035248	-0.62164	-0.00824	0.000305	0.03952	0.17654	0.001068	-0.093536	-0.00351	0.48996	0.021362	0.026703	0.065613	-0.060577	-0.33752	0.011292	-0.060272	0.020447	-0.010681	-0.018463	-0.014801	0	0.010681	-0.008392	-0.20721	-0.24338	-0.001068	0.001984
47.05	0.009308	-0.054779	0.098724	0.003357	0.053711	-0.40695	0.002441	0.001373	0.028839	-0.099945	-0.00351	0.03067	0.057526	-0.40924	-0.001831	-0.27405	0.076904	-0.075836	-0.40207	0.010376	-0.063477	0.009155	-0.074005	-0.15869	-0.012512	0.004578	-0.023041	-0.007477	-0.25269	-0.2385	-0.001831	-0.00351
47.051	0.00824	-0.17532	0.062561	0	0.025635	-0.11627	0.038605	0.003204	0.019836	0.055084	-0.003967	-0.071564	0.040741	-1.3017	0.000916	0.032043	0.05127	-0.09552	-0.43243	0.051575	-0.062103	0.006104	-0.041809	-0.13702	-0.013885	0.001526	0.024261	-0.006256	-0.1239	-0.21851	-0.003204	-0.002747
47.052	0.013123	-0.17487	0.064392	0.013428	0.030823	-0.039978	0.035553	0.000763	-0.002441	0.49652	0.003204	-0.11017	-0.002289	-1.1311	-0.012054	0.13062	0	-0.085907	-0.26337	-0.097046	-0.063324	0.010986	0.018311	-0.15533	-0.001831	0.014648	-0.62027	-0.009918	0.19058	-0.26154	0.009766	0.000916
47.053	0.015869	-0.15671	-0.048676	0.027771	0.022888	-0.16357	0.058899	0.004425	-0.043335	0.2214	0.011444	-0.075989	-0.081635	-0.68726	0.018158	-0.5481	-0.024719	-0.10483	-0.10101	-0.19699	-0.062256	-0.00824	0.088196	-0.089111	0	0.012207	-0.68863	-0.009003	0.28473	-0.13412	-0.003662	-0.005188
47.054	0.008545	-0.15915	-0.008392	0.015869	0.021667	-0.15915	0.079346	0.013885	-0.057983	-0.31006	0.007629	-0.078278	-0.059814	0.048981	0.037842	0.17242	-0.033569	-0.071411	-0.088348	-0.14893	-0.055237	0.00412	0.081635	0.001678	0.011292	0.014496	-0.10544	-0.008087	-0.057373	-0.051117	-0.002899	-0.003662
47.055	0.007629	-0.18601	0.024567	0.001678	0.00885	-0.053406	0.08194	0.00885	-0.073395	-0.079956	-0.012512	-0.037384	-0.05661	0.49179	-0.031128	0.10956	-0.04303	-0.099792	-0.2507	0.003662	-0.060577	0.003815	0.066223	0.001831	0.013275	0.015869	0.16876	-0.017395	-0.12558	-0.016632	-0.002441	-0.000305
